<svg width="50" height="50" viewBox="0 0 50 50" fill="none" xmlns="http://www.w3.org/2000/svg">
<g clip-path="url(#clip0_5053_5454)">
<path d="M50.0001 25C50.0001 25.63 50.0001 26.27 49.9201 26.89C49.7996 28.5204 49.5183 30.135 49.0801 31.71C48.6651 33.2248 48.1024 34.6952 47.4001 36.1L46.9301 37C46.7901 37.25 46.6501 37.51 46.5001 37.75C46.4708 37.8143 46.4339 37.8747 46.3901 37.93C46.1601 38.29 45.9301 38.67 45.6901 39.02L45.3501 39.51C43.729 41.7728 41.7457 43.7528 39.4801 45.37L39.3301 45.48C39.1001 45.65 38.8501 45.81 38.6001 45.96C38.3701 46.12 38.1201 46.27 37.8801 46.41L37.5901 46.58C37.4101 46.7 37.2201 46.8 37.0401 46.9L36.9301 46.96L36.5001 47.19C36.1101 47.39 35.7201 47.57 35.3301 47.75C34.4116 48.1611 33.47 48.5184 32.5101 48.82C32.1401 48.94 31.7701 49.04 31.4001 49.14L31.1501 49.2L30.9601 49.25L30.6101 49.33C30.3201 49.4 30.0401 49.46 29.7401 49.51H29.5101L28.9401 49.61H28.6101H28.3501C27.5444 49.7221 26.7332 49.7889 25.9201 49.81H24.1701C23.5601 49.81 22.9701 49.75 22.3801 49.68H22.2701L21.2701 49.55L20.2201 49.36C20.1157 49.3458 20.0122 49.3257 19.9101 49.3C19.5001 49.22 19.0801 49.13 18.6801 49.02L18.4901 48.97L18.1901 48.89L18.0001 49C16.9772 48.7151 15.9749 48.361 15.0001 47.94C14.6301 47.78 14.2601 47.6 13.8901 47.42H13.8301H13.7701C13.6101 47.35 13.4401 47.26 13.2801 47.17C13.1201 47.08 12.7101 46.87 12.4301 46.7C11.8601 46.37 11.3101 46.03 10.7801 45.65C9.54872 44.815 8.40014 43.864 7.35006 42.81C6.49218 41.9383 5.70628 40.9986 5.00006 40C4.74006 39.66 4.49006 39.31 4.25006 38.95C3.52774 37.8897 2.89234 36.7727 2.35006 35.61C2.17006 35.22 2.00006 34.84 1.84006 34.43C1.35654 33.2531 0.968623 32.0392 0.680063 30.8C0.223912 28.9005 -0.0043625 26.9535 6.3131e-05 25C6.3131e-05 24.69 6.3131e-05 24.38 6.3131e-05 24.09C0.182945 19.1164 1.84618 14.3105 4.77678 10.2879C7.70738 6.26519 11.772 3.20878 16.4501 1.51001C17.4283 1.14426 18.4307 0.846883 19.4501 0.620011C21.2703 0.20188 23.1324 -0.00614559 25.0001 1.06537e-05C27.9201 -0.0049328 30.818 0.506263 33.5601 1.51001C34.566 1.87824 35.5479 2.30909 36.5001 2.80001C40.5687 4.90783 43.9798 8.09332 46.3606 12.0085C48.7414 15.9236 50.0004 20.4178 50.0001 25Z" fill="#ECEFF9"/>
<path d="M37.5792 18.83V19.83C37.5872 20.0279 37.556 20.2253 37.4873 20.411C37.4187 20.5967 37.3139 20.767 37.1791 20.912C37.0443 21.0571 36.8821 21.174 36.7019 21.256C36.5217 21.338 36.3271 21.3836 36.1292 21.39H35.9992C36.0165 21.1726 35.9887 20.954 35.9174 20.7479C35.8461 20.5418 35.7329 20.3527 35.585 20.1925C35.437 20.0323 35.2575 19.9045 35.0578 19.817C34.858 19.7296 34.6423 19.6844 34.4242 19.6844C34.2061 19.6844 33.9904 19.7296 33.7906 19.817C33.5909 19.9045 33.4114 20.0323 33.2634 20.1925C33.1155 20.3527 33.0023 20.5418 32.931 20.7479C32.8597 20.954 32.8319 21.1726 32.8492 21.39H29.7192C29.7365 21.1726 29.7087 20.954 29.6374 20.7479C29.5661 20.5418 29.4529 20.3527 29.305 20.1925C29.157 20.0323 28.9775 19.9045 28.7778 19.817C28.578 19.7296 28.3623 19.6844 28.1442 19.6844C27.9261 19.6844 27.7104 19.7296 27.5106 19.817C27.3109 19.9045 27.1314 20.0323 26.9834 20.1925C26.8355 20.3527 26.7223 20.5418 26.651 20.7479C26.5797 20.954 26.5519 21.1726 26.5692 21.39H23.4292C23.4465 21.1726 23.4187 20.954 23.3474 20.7479C23.2761 20.5418 23.1629 20.3527 23.015 20.1925C22.867 20.0323 22.6875 19.9045 22.4878 19.817C22.288 19.7296 22.0723 19.6844 21.8542 19.6844C21.6361 19.6844 21.4204 19.7296 21.2206 19.817C21.0209 19.9045 20.8414 20.0323 20.6934 20.1925C20.5455 20.3527 20.4323 20.5418 20.361 20.7479C20.2897 20.954 20.2619 21.1726 20.2792 21.39H17.1392C17.1565 21.1726 17.1287 20.954 17.0574 20.7479C16.9861 20.5418 16.8729 20.3527 16.725 20.1925C16.577 20.0323 16.3975 19.9045 16.1978 19.817C15.998 19.7296 15.7823 19.6844 15.5642 19.6844C15.3461 19.6844 15.1304 19.7296 14.9306 19.817C14.7309 19.9045 14.5514 20.0323 14.4034 20.1925C14.2555 20.3527 14.1423 20.5418 14.071 20.7479C13.9997 20.954 13.9719 21.1726 13.9892 21.39H13.8692C13.6713 21.3836 13.4767 21.338 13.2965 21.256C13.1163 21.174 12.9541 21.0571 12.8193 20.912C12.6845 20.767 12.5797 20.5967 12.5111 20.411C12.4424 20.2253 12.4112 20.0279 12.4192 19.83V18.83C12.4147 18.5723 12.4745 18.3176 12.5933 18.0889C12.712 17.8602 12.8859 17.6646 13.0992 17.52L24.2292 10C24.4558 9.84437 24.7243 9.76105 24.9992 9.76105C25.2741 9.76105 25.5426 9.84437 25.7692 10L36.8992 17.52C37.1125 17.6646 37.2864 17.8602 37.4051 18.0889C37.5239 18.3176 37.5837 18.5723 37.5792 18.83Z" fill="#2D375E"/>
<path d="M39.1502 38H10.8502C10.8393 37.5363 10.99 37.0832 11.2764 36.7184C11.5628 36.3536 11.9671 36.0996 12.4202 36V35C12.4098 34.5349 12.5619 34.0808 12.8503 33.7157C13.1387 33.3507 13.5453 33.0976 14.0002 33C13.9828 33.2174 14.0107 33.436 14.082 33.6421C14.1532 33.8482 14.2664 34.0373 14.4144 34.1975C14.5623 34.3577 14.7418 34.4856 14.9416 34.573C15.1414 34.6605 15.3571 34.7056 15.5752 34.7056C15.7932 34.7056 16.0089 34.6605 16.2087 34.573C16.4085 34.4856 16.588 34.3577 16.7359 34.1975C16.8839 34.0373 16.9971 33.8482 17.0683 33.6421C17.1396 33.436 17.1675 33.2174 17.1502 33H20.2902C20.2728 33.2174 20.3007 33.436 20.372 33.6421C20.4432 33.8482 20.5564 34.0373 20.7044 34.1975C20.8523 34.3577 21.0318 34.4856 21.2316 34.573C21.4314 34.6605 21.6471 34.7056 21.8652 34.7056C22.0832 34.7056 22.2989 34.6605 22.4987 34.573C22.6985 34.4856 22.878 34.3577 23.0259 34.1975C23.1739 34.0373 23.2871 33.8482 23.3583 33.6421C23.4296 33.436 23.4575 33.2174 23.4402 33H26.5802C26.5628 33.2174 26.5907 33.436 26.662 33.6421C26.7332 33.8482 26.8464 34.0373 26.9944 34.1975C27.1423 34.3577 27.3218 34.4856 27.5216 34.573C27.7214 34.6605 27.9371 34.7056 28.1552 34.7056C28.3732 34.7056 28.5889 34.6605 28.7887 34.573C28.9885 34.4856 29.168 34.3577 29.3159 34.1975C29.4639 34.0373 29.5771 33.8482 29.6483 33.6421C29.7196 33.436 29.7475 33.2174 29.7302 33H32.8702C32.8391 33.2237 32.8564 33.4514 32.9208 33.6679C32.9852 33.8844 33.0953 34.0845 33.2436 34.2548C33.3919 34.4251 33.575 34.5617 33.7806 34.6552C33.9861 34.7488 34.2093 34.7972 34.4352 34.7972C34.661 34.7972 34.8842 34.7488 35.0898 34.6552C35.2953 34.5617 35.4784 34.4251 35.6267 34.2548C35.775 34.0845 35.8851 33.8844 35.9495 33.6679C36.0139 33.4514 36.0312 33.2237 36.0002 33C36.4532 33.0996 36.8575 33.3536 37.1439 33.7184C37.4303 34.0832 37.581 34.5363 37.5702 35V36C38.025 36.0976 38.4316 36.3507 38.72 36.7157C39.0084 37.0808 39.1605 37.5349 39.1502 38Z" fill="#2D375E"/>
<path d="M24.9997 16.38C25.8668 16.38 26.5697 15.6368 26.5697 14.72C26.5697 13.8032 25.8668 13.06 24.9997 13.06C24.1326 13.06 23.4297 13.8032 23.4297 14.72C23.4297 15.6368 24.1326 16.38 24.9997 16.38Z" fill="#E9B2C9"/>
<path d="M17.1392 33H14.3393C14.2093 33 14.0993 33 13.9893 33C13.7041 29.1252 13.7041 25.2347 13.9893 21.36H17.1392C17.3944 25.2358 17.3944 29.1242 17.1392 33Z" fill="#2D375E"/>
<path d="M23.4303 33H20.2803C19.9951 29.1252 19.9951 25.2347 20.2803 21.36H23.4303C23.6854 25.2358 23.6854 29.1242 23.4303 33Z" fill="#2D375E"/>
<path d="M29.7195 33H26.5695C26.2893 29.125 26.2893 25.2349 26.5695 21.36H29.7195C29.9796 25.2356 29.9796 29.1243 29.7195 33Z" fill="#2D375E"/>
<path d="M15.5603 19.71C15.135 19.7282 14.7337 19.9121 14.4422 20.2223C14.1507 20.5325 13.9921 20.9444 14.0003 21.37H17.1503C17.1584 20.9394 16.9956 20.5231 16.6977 20.212C16.3998 19.901 15.9909 19.7205 15.5603 19.71Z" fill="#E9B2C9"/>
<path d="M13.9991 33C13.9818 33.2174 14.0097 33.436 14.0809 33.6421C14.1522 33.8482 14.2654 34.0373 14.4134 34.1975C14.5613 34.3577 14.7408 34.4856 14.9406 34.573C15.1404 34.6605 15.3561 34.7056 15.5741 34.7056C15.7922 34.7056 16.0079 34.6605 16.2077 34.573C16.4075 34.4856 16.587 34.3577 16.7349 34.1975C16.8829 34.0373 16.996 33.8482 17.0673 33.6421C17.1386 33.436 17.1665 33.2174 17.1491 33H14.3491C14.2091 33 14.0991 33 13.9991 33Z" fill="#E9B2C9"/>
<path d="M21.8496 19.71C21.4225 19.7257 21.0187 19.9084 20.7251 20.2189C20.4314 20.5294 20.2714 20.9428 20.2796 21.37H23.4296C23.4377 20.9411 23.2763 20.5262 22.9806 20.2155C22.6848 19.9047 22.2784 19.7231 21.8496 19.71Z" fill="#E9B2C9"/>
<path d="M21.8498 34.67C22.2804 34.6569 22.6883 34.4739 22.9844 34.161C23.2804 33.8481 23.4406 33.4307 23.4298 33H20.2798C20.269 33.429 20.4278 33.8449 20.7217 34.1576C21.0156 34.4702 21.421 34.6543 21.8498 34.67Z" fill="#E9B2C9"/>
<path d="M28.1506 19.71C27.7218 19.7231 27.3154 19.9047 27.0196 20.2155C26.7238 20.5262 26.5625 20.9411 26.5706 21.37H29.7206C29.7288 20.9428 29.5688 20.5294 29.2751 20.2189C28.9815 19.9084 28.5777 19.7257 28.1506 19.71Z" fill="#E9B2C9"/>
<path d="M28.1508 34.67C28.5797 34.6543 28.985 34.4702 29.2789 34.1576C29.5729 33.8449 29.7316 33.429 29.7208 33H26.5708C26.5601 33.4307 26.7202 33.8481 27.0163 34.161C27.3123 34.4739 27.7202 34.6569 28.1508 34.67Z" fill="#E9B2C9"/>
<path d="M34.4397 19.71C34.0108 19.7231 33.6045 19.9047 33.3087 20.2155C33.0129 20.5262 32.8516 20.9411 32.8597 21.37H35.9997C36.0079 20.9444 35.8493 20.5325 35.5578 20.2223C35.2663 19.9121 34.865 19.7282 34.4397 19.71Z" fill="#E9B2C9"/>
<path d="M32.8596 33C32.8346 33.2211 32.8566 33.4449 32.9241 33.6569C32.9916 33.8689 33.1031 34.0642 33.2513 34.2301C33.3995 34.396 33.5811 34.5287 33.7841 34.6196C33.9872 34.7105 34.2071 34.7575 34.4296 34.7575C34.6521 34.7575 34.872 34.7105 35.0751 34.6196C35.2781 34.5287 35.4597 34.396 35.6079 34.2301C35.7561 34.0642 35.8676 33.8689 35.9351 33.6569C36.0026 33.4449 36.0246 33.2211 35.9996 33C35.8896 33 35.7796 33 35.6496 33H32.8596Z" fill="#E9B2C9"/>
<path d="M36.0007 33C35.8907 33 35.7807 33 35.6507 33H32.8507C32.5706 29.125 32.5706 25.2349 32.8507 21.36H36.0007C36.2609 25.2356 36.2609 29.1243 36.0007 33Z" fill="#2D375E"/>
</g>
<defs>
<clipPath id="clip0_5053_5454">
<rect width="50" height="50" fill="white"/>
</clipPath>
</defs>
</svg>
