<svg width="170" height="46" viewBox="0 0 170 46" fill="none" xmlns="http://www.w3.org/2000/svg">
<g clip-path="url(#clip0_4928_4940)">
<path d="M166.637 12.0671C167.012 12.0698 167.379 12.1662 167.707 12.3476C168.05 12.5314 168.332 12.8107 168.519 13.1517C168.709 13.4844 168.809 13.8604 168.81 14.2431C168.809 14.6223 168.71 14.9948 168.523 15.3243C168.337 15.6643 168.058 15.9439 167.719 16.1301C167.389 16.3173 167.016 16.4157 166.637 16.4157C166.257 16.4157 165.884 16.3173 165.555 16.1301C165.215 15.9435 164.935 15.664 164.749 15.3243C164.559 14.9938 164.459 14.6192 164.459 14.238C164.459 13.8568 164.559 13.4823 164.749 13.1517C164.936 12.8103 165.219 12.5308 165.563 12.3476C165.892 12.165 166.261 12.0685 166.637 12.0671V12.0671ZM166.637 12.4275C166.327 12.4301 166.021 12.5108 165.75 12.6621C165.463 12.8156 165.227 13.0489 165.07 13.3336C164.911 13.6089 164.828 13.9211 164.828 14.2389C164.828 14.5567 164.911 14.8689 165.07 15.1441C165.228 15.4284 165.464 15.6614 165.75 15.8156C166.024 15.9738 166.335 16.057 166.652 16.057C166.968 16.057 167.279 15.9738 167.554 15.8156C167.841 15.6624 168.077 15.4291 168.234 15.1441C168.39 14.8696 168.473 14.5591 168.473 14.2431C168.472 13.9241 168.388 13.6108 168.23 13.3336C168.073 13.0489 167.837 12.8156 167.55 12.6621C167.271 12.5073 166.957 12.4265 166.637 12.4275ZM165.684 15.4501V13.1041H166.486C166.687 13.0948 166.889 13.1172 167.083 13.1704C167.204 13.2105 167.307 13.2902 167.377 13.3965C167.448 13.4959 167.486 13.6146 167.487 13.7365C167.488 13.8196 167.473 13.9019 167.441 13.9787C167.409 14.0555 167.363 14.1252 167.304 14.1836C167.175 14.3142 167.001 14.3908 166.818 14.3978C166.892 14.4256 166.959 14.4678 167.017 14.5219C167.147 14.6634 167.261 14.8191 167.357 14.986L167.642 15.4433H167.18L166.972 15.0744C166.875 14.8708 166.741 14.6865 166.578 14.5304C166.489 14.4703 166.382 14.4416 166.275 14.4488H166.054V15.4501H165.684ZM166.061 14.1326H166.518C166.675 14.1482 166.832 14.1143 166.967 14.0357C167.006 14.0045 167.037 13.9648 167.057 13.9197C167.078 13.8745 167.088 13.8252 167.086 13.7756C167.087 13.7093 167.067 13.6443 167.028 13.5903C166.989 13.5343 166.933 13.4917 166.869 13.4679C166.745 13.4337 166.617 13.4199 166.49 13.4271H166.061V14.1326Z" fill="#333333"/>
<path d="M27.8444 13.2774C31.4497 13.2774 34.3724 10.3547 34.3724 6.74943C34.3724 3.14412 31.4497 0.221436 27.8444 0.221436C24.2391 0.221436 21.3164 3.14412 21.3164 6.74943C21.3164 10.3547 24.2391 13.2774 27.8444 13.2774Z" fill="#333333"/>
<path d="M37.0905 41.9974C40.6958 41.9974 43.6185 39.0747 43.6185 35.4694C43.6185 31.8641 40.6958 28.9414 37.0905 28.9414C33.4852 28.9414 30.5625 31.8641 30.5625 35.4694C30.5625 39.0747 33.4852 41.9974 37.0905 41.9974Z" fill="#333333"/>
<path d="M7.71794 35.9061C11.3233 35.9061 14.2459 32.9834 14.2459 29.3781C14.2459 25.7728 11.3233 22.8501 7.71794 22.8501C4.11263 22.8501 1.18994 25.7728 1.18994 29.3781C1.18994 32.9834 4.11263 35.9061 7.71794 35.9061Z" fill="#333333"/>
<path d="M8.58842 20.4566C10.9319 20.4566 12.8316 18.5569 12.8316 16.2134C12.8316 13.87 10.9319 11.9702 8.58842 11.9702C6.24496 11.9702 4.34521 13.87 4.34521 16.2134C4.34521 18.5569 6.24496 20.4566 8.58842 20.4566Z" fill="#333333"/>
<path d="M38.94 18.7174C41.2834 18.7174 43.1832 16.8176 43.1832 14.4742C43.1832 12.1307 41.2834 10.231 38.94 10.231C36.5965 10.231 34.6968 12.1307 34.6968 14.4742C34.6968 16.8176 36.5965 18.7174 38.94 18.7174Z" fill="#333333"/>
<path d="M25.0157 45.2613C27.3591 45.2613 29.2589 43.3616 29.2589 41.0181C29.2589 38.6747 27.3591 36.7749 25.0157 36.7749C22.6722 36.7749 20.7725 38.6747 20.7725 41.0181C20.7725 43.3616 22.6722 45.2613 25.0157 45.2613Z" fill="#333333"/>
<path d="M15.006 41.562C16.6284 41.562 17.9436 40.2468 17.9436 38.6244C17.9436 37.002 16.6284 35.6868 15.006 35.6868C13.3836 35.6868 12.0684 37.002 12.0684 38.6244C12.0684 40.2468 13.3836 41.562 15.006 41.562Z" fill="#333333"/>
<path d="M41.7691 26.9845C43.3915 26.9845 44.7067 25.6693 44.7067 24.047C44.7067 22.4246 43.3915 21.1094 41.7691 21.1094C40.1468 21.1094 38.8315 22.4246 38.8315 24.047C38.8315 25.6693 40.1468 26.9845 41.7691 26.9845Z" fill="#333333"/>
<path d="M15.6588 11.7541C17.2812 11.7541 18.5964 10.4389 18.5964 8.8165C18.5964 7.19411 17.2812 5.87891 15.6588 5.87891C14.0364 5.87891 12.7212 7.19411 12.7212 8.8165C12.7212 10.4389 14.0364 11.7541 15.6588 11.7541Z" fill="#333333"/>
<path d="M65.02 45.88V12.8796H68.5475V17.0497C69.3839 15.4494 70.4889 14.2209 71.8625 13.3641C73.2386 12.5067 74.8313 12.0608 76.4525 12.0789C79.5771 12.0789 82.0869 13.1703 83.9818 15.3531C85.8768 17.5359 86.8237 20.4299 86.8225 24.035C86.8225 27.7047 85.8954 30.6191 84.0413 32.7781C82.1872 34.9371 79.7063 36.0177 76.5987 36.02C74.8137 36.02 73.2588 35.6035 71.9339 34.7705C70.6091 33.9375 69.5279 32.6965 68.6903 31.0475V45.88H65.02ZM68.59 24.0282C68.59 26.5215 69.261 28.5185 70.6028 30.019C71.9447 31.5195 73.7223 32.2732 75.9357 32.28C78.0959 32.28 79.7959 31.5926 81.0357 30.2179C82.2756 28.8432 82.8949 26.9352 82.8938 24.494C82.8938 21.7615 82.2745 19.6195 81.0357 18.068C79.797 16.5165 78.0726 15.7401 75.8626 15.739C73.605 15.739 71.8291 16.4757 70.5348 17.949C69.2406 19.4223 68.594 21.451 68.5951 24.035L68.59 24.0282Z" fill="#333333"/>
<path d="M110.735 12.8799V35.07H107.136V31.0444C106.268 32.6605 105.159 33.8936 103.809 34.7436C102.453 35.5947 100.881 36.0379 99.2802 36.0203C96.1703 36.0203 93.6645 34.9249 91.7628 32.7342C89.861 30.5434 88.9102 27.6438 88.9102 24.0353C88.9102 20.3814 89.8338 17.475 91.6812 15.316C93.5285 13.157 95.9986 12.0803 99.0915 12.086C100.905 12.086 102.479 12.5025 103.814 13.3355C105.149 14.1685 106.226 15.4089 107.044 17.0568V12.8799H110.735ZM107.136 24.1815C107.136 21.6757 106.469 19.6583 105.135 18.1295C103.801 16.6006 102.061 15.8367 99.9143 15.8379C97.6895 15.8379 95.9533 16.5411 94.7055 17.9476C93.4577 19.354 92.8343 21.3187 92.8355 23.8415C92.8355 26.5252 93.4628 28.5947 94.7174 30.0499C95.972 31.5051 97.7519 32.2327 100.057 32.2327C102.267 32.2327 103.999 31.5255 105.254 30.1111C106.509 28.6967 107.136 26.7201 107.136 24.1815Z" fill="#333333"/>
<path d="M136.134 12.8798V34.6823C136.134 37.0906 135.977 38.8048 135.662 39.8248C135.346 40.8405 134.813 41.7751 134.099 42.5635C133.084 43.6835 131.812 44.541 130.393 45.0625C128.934 45.6076 127.257 45.8802 125.363 45.8802C122.076 45.8802 119.515 45.1124 117.679 43.5767C115.843 42.041 114.884 39.8662 114.803 37.0521H118.969V37.3428C118.969 39.0088 119.53 40.2946 120.651 41.2001C121.771 42.1056 123.358 42.559 125.411 42.5601C126.894 42.5601 128.161 42.3136 129.212 41.8206C130.224 41.3607 131.065 40.5925 131.614 39.6259C131.959 39.0368 132.199 38.3919 132.323 37.7202C132.466 36.9926 132.536 35.9499 132.535 34.5922V30.8522C131.699 32.4389 130.602 33.6555 129.246 34.5021C127.875 35.3541 126.29 35.796 124.676 35.7754C121.565 35.7754 119.059 34.6919 117.159 32.525C115.258 30.3581 114.307 27.48 114.306 23.8907C114.306 20.264 115.229 17.3905 117.075 15.27C118.922 13.1495 121.392 12.0865 124.486 12.0808C126.285 12.0808 127.864 12.4973 129.222 13.3303C130.58 14.1633 131.653 15.3879 132.442 17.004V12.8798H136.134ZM132.535 24.0352C132.535 21.5419 131.873 19.537 130.548 18.0206C129.223 16.5042 127.479 15.7443 125.315 15.7409C123.089 15.7409 121.353 16.4441 120.107 17.8506C118.86 19.2571 118.237 21.2217 118.237 23.7445C118.237 26.4294 118.864 28.4988 120.118 29.9529C121.373 31.407 123.154 32.1346 125.46 32.1357C127.67 32.1357 129.402 31.4206 130.657 29.9903C131.911 28.56 132.538 26.575 132.535 24.0352Z" fill="#333333"/>
<path d="M161.629 12.8799V35.07H158.03V31.0444C157.163 32.6616 156.053 33.8947 154.7 34.7436C153.344 35.5947 151.772 36.0379 150.171 36.0203C147.06 36.0203 144.554 34.9249 142.654 32.7342C140.753 30.5434 139.802 27.6438 139.801 24.0353C139.801 20.3814 140.724 17.475 142.571 15.316C144.417 13.157 146.887 12.0803 149.981 12.086C151.794 12.086 153.369 12.5025 154.705 13.3355C156.041 14.1685 157.118 15.4089 157.935 17.0568V12.8799H161.629ZM158.03 24.1815C158.03 21.6757 157.364 19.6583 156.031 18.1295C154.698 16.6006 152.958 15.8367 150.81 15.8379C148.585 15.8379 146.848 16.5411 145.602 17.9476C144.355 19.354 143.732 21.3187 143.732 23.8415C143.732 26.5252 144.359 28.5947 145.614 30.0499C146.868 31.5051 148.65 32.2327 150.96 32.2327C153.17 32.2327 154.902 31.5255 156.157 30.1111C157.412 28.6967 158.036 26.7201 158.03 24.1815Z" fill="#333333"/>
</g>
<defs>
<clipPath id="clip0_4928_4940">
<rect width="170" height="45.731" fill="white"/>
</clipPath>
</defs>
</svg>
