<svg width="50" height="50" viewBox="0 0 50 50" fill="none" xmlns="http://www.w3.org/2000/svg">
<path d="M50.0001 25.0001C50.0001 25.6301 50.0001 26.2701 49.9201 26.8901C49.7996 28.5206 49.5183 30.1351 49.0801 31.7101C48.6651 33.2249 48.1024 34.6953 47.4001 36.1001L46.9301 37.0001C46.7901 37.2501 46.6501 37.5101 46.5001 37.7501C46.4708 37.8144 46.4339 37.8748 46.3901 37.9301C46.1601 38.2901 45.9301 38.6701 45.6901 39.0201L45.3501 39.5101C43.729 41.773 41.7457 43.7529 39.4801 45.3701L39.3301 45.4801C39.1001 45.6501 38.8501 45.8101 38.6001 45.9601C38.3701 46.1201 38.1201 46.2701 37.8801 46.4101L37.5901 46.5801C37.4101 46.7001 37.2201 46.8001 37.0401 46.9001L36.9301 46.9601L36.5001 47.1901C36.1101 47.3901 35.7201 47.5701 35.3301 47.7501C34.4116 48.1612 33.47 48.5185 32.5101 48.8201C32.1401 48.9401 31.7701 49.0401 31.4001 49.1401L31.1501 49.2001L30.9601 49.2501L30.6101 49.3301C30.3201 49.4001 30.0401 49.4601 29.7401 49.5101H29.5101L28.9401 49.6101H28.6101H28.3501C27.5444 49.7223 26.7332 49.789 25.9201 49.8101H24.1701C23.5601 49.8101 22.9701 49.7501 22.3801 49.6801H22.2701L21.2701 49.5501L20.2201 49.3601C20.1157 49.3459 20.0122 49.3259 19.9101 49.3001C19.5001 49.2201 19.0801 49.1301 18.6801 49.0201L18.4901 48.9701L18.1901 48.8901L18.0001 49.0001C16.9772 48.7152 15.9749 48.3611 15.0001 47.9401C14.6301 47.7801 14.2601 47.6001 13.8901 47.4201H13.8301H13.7701C13.6101 47.3501 13.4401 47.2601 13.2801 47.1701C13.1201 47.0801 12.7101 46.8701 12.4301 46.7001C11.8601 46.3701 11.3101 46.0301 10.7801 45.6501C9.54872 44.8151 8.40014 43.8641 7.35006 42.8101C6.49218 41.9384 5.70628 40.9987 5.00006 40.0001C4.74006 39.6601 4.49006 39.3101 4.25006 38.9501C3.52774 37.8898 2.89234 36.7729 2.35006 35.6101C2.17006 35.2201 2.00006 34.8401 1.84006 34.4301C1.35654 33.2532 0.968623 32.0393 0.680063 30.8001C0.223912 28.9007 -0.0043625 26.9536 6.3131e-05 25.0001C6.3131e-05 24.6901 6.3131e-05 24.3801 6.3131e-05 24.0901C0.182945 19.1165 1.84618 14.3107 4.77678 10.288C7.70738 6.26531 11.772 3.2089 16.4501 1.51013C17.4283 1.14439 18.4307 0.847005 19.4501 0.620133C21.2703 0.202002 23.1324 -0.00602352 25.0001 0.000132724C27.9201 -0.00481073 30.818 0.506385 33.5601 1.51013C34.566 1.87837 35.5479 2.30921 36.5001 2.80013C40.5687 4.90795 43.9798 8.09345 46.3606 12.0086C48.7414 15.9237 50.0004 20.4179 50.0001 25.0001Z" fill="#ECEFF9"/>
<path d="M42.0001 14.3101L40.4401 12.7401C40.0994 12.3664 39.6257 12.1413 39.1207 12.1132C38.6158 12.0852 38.12 12.2564 37.7401 12.5901L27.0601 23.2601C26.6055 23.719 26.2454 24.2626 26.0001 24.8601L24.3901 28.6601C24.3053 28.8973 24.2896 29.1536 24.3449 29.3993C24.4001 29.6451 24.524 29.8701 24.702 30.0481C24.8801 30.2262 25.1051 30.3501 25.3508 30.4053C25.5966 30.4605 25.8529 30.4449 26.0901 30.3601L29.8901 28.7501C30.4864 28.498 31.0293 28.1349 31.4901 27.6801L42.1501 17.0001C42.4857 16.6229 42.6583 16.1282 42.6302 15.6242C42.6021 15.1201 42.3755 14.6476 42.0001 14.3101Z" fill="#009A46"/>
<path d="M35.2603 16.2201H30.2603V14.9201C30.2577 13.8981 29.8498 12.9189 29.1262 12.1972C28.4026 11.4754 27.4223 11.0701 26.4003 11.0701H21.5103C20.4883 11.0701 19.508 11.4754 18.7844 12.1972C18.0608 12.9189 17.653 13.8981 17.6503 14.9201V16.2201H12.6503C11.7671 16.2201 10.9201 16.571 10.2956 17.1955C9.67115 17.82 9.32031 18.667 9.32031 19.5501V34.5501C9.32295 35.4325 9.67464 36.278 10.2986 36.9019C10.9225 37.5258 11.768 37.8775 12.6503 37.8801H35.2603C36.1427 37.8775 36.9881 37.5258 37.6121 36.9019C38.236 36.278 38.5877 35.4325 38.5903 34.5501V19.5501C38.5903 18.667 38.2395 17.82 37.615 17.1955C36.9905 16.571 36.1435 16.2201 35.2603 16.2201V16.2201ZM19.8903 14.9201C19.893 14.4922 20.0648 14.0827 20.3683 13.7811C20.6718 13.4794 21.0824 13.3101 21.5103 13.3101H26.4303C26.8503 13.3206 27.2496 13.4948 27.543 13.7956C27.8363 14.0964 28.0004 14.5 28.0003 14.9201V16.2201H19.8903V14.9201Z" fill="#2D375E"/>
<path d="M38.5901 19.5502C38.5901 18.667 38.2392 17.82 37.6147 17.1955C36.9902 16.571 36.1432 16.2202 35.2601 16.2202H34.1001L27.1001 23.2202C26.6268 23.6872 26.2526 24.245 26.0001 24.8602L24.3901 28.6602C24.3053 28.8973 24.2896 29.1537 24.3449 29.3994C24.4001 29.6451 24.524 29.8701 24.702 30.0482C24.8801 30.2263 25.1051 30.3501 25.3508 30.4054C25.5966 30.4606 25.8529 30.4449 26.0901 30.3602L29.8901 28.7502C30.4864 28.4981 31.0293 28.135 31.4901 27.6802L38.6001 20.5602L38.5901 19.5502Z" fill="#FF5805"/>
<path d="M16.3498 32.6301H13.9598C13.297 32.6301 12.7598 33.1651 12.7598 33.8251C12.7598 34.4851 13.297 35.0201 13.9598 35.0201H16.3498C17.0125 35.0201 17.5498 34.4851 17.5498 33.8251C17.5498 33.1651 17.0125 32.6301 16.3498 32.6301Z" fill="white"/>
</svg>
