<svg width="50" height="50" viewBox="0 0 50 50" fill="none" xmlns="http://www.w3.org/2000/svg">
<path d="M50.0001 25C50.0001 25.63 50.0001 26.27 49.9201 26.89C49.7996 28.5204 49.5183 30.135 49.0801 31.71C48.6651 33.2248 48.1024 34.6952 47.4001 36.1L46.9301 37C46.7901 37.25 46.6501 37.51 46.5001 37.75C46.4708 37.8143 46.4339 37.8747 46.3901 37.93C46.1601 38.29 45.9301 38.67 45.6901 39.02L45.3501 39.51C43.729 41.7728 41.7457 43.7528 39.4801 45.37L39.3301 45.48C39.1001 45.65 38.8501 45.81 38.6001 45.96C38.3701 46.12 38.1201 46.27 37.8801 46.41L37.5901 46.58C37.4101 46.7 37.2201 46.8 37.0401 46.9L36.9301 46.96L36.5001 47.19C36.1101 47.39 35.7201 47.57 35.3301 47.75C34.4116 48.1611 33.47 48.5184 32.5101 48.82C32.1401 48.94 31.7701 49.04 31.4001 49.14L31.1501 49.2L30.9601 49.25L30.6101 49.33C30.3201 49.4 30.0401 49.46 29.7401 49.51H29.5101L28.9401 49.61H28.6101H28.3501C27.5444 49.7221 26.7332 49.7889 25.9201 49.81H24.1701C23.5601 49.81 22.9701 49.75 22.3801 49.68H22.2701L21.2701 49.55L20.2201 49.36C20.1157 49.3458 20.0122 49.3257 19.9101 49.3C19.5001 49.22 19.0801 49.13 18.6801 49.02L18.4901 48.97L18.1901 48.89L18.0001 49C16.9772 48.7151 15.9749 48.361 15.0001 47.94C14.6301 47.78 14.2601 47.6 13.8901 47.42H13.8301H13.7701C13.6101 47.35 13.4401 47.26 13.2801 47.17C13.1201 47.08 12.7101 46.87 12.4301 46.7C11.8601 46.37 11.3101 46.03 10.7801 45.65C9.54872 44.815 8.40014 43.864 7.35006 42.81C6.49218 41.9383 5.70628 40.9986 5.00006 40C4.74006 39.66 4.49006 39.31 4.25006 38.95C3.52774 37.8897 2.89234 36.7727 2.35006 35.61C2.17006 35.22 2.00006 34.84 1.84006 34.43C1.35654 33.2531 0.968623 32.0392 0.680063 30.8C0.223912 28.9005 -0.0043625 26.9535 6.3131e-05 25C6.3131e-05 24.69 6.3131e-05 24.38 6.3131e-05 24.09C0.182945 19.1164 1.84618 14.3105 4.77678 10.2879C7.70738 6.26519 11.772 3.20878 16.4501 1.51001C17.4283 1.14426 18.4307 0.846883 19.4501 0.620011C21.2703 0.20188 23.1324 -0.00614559 25.0001 1.06537e-05C27.9201 -0.0049328 30.818 0.506263 33.5601 1.51001C34.566 1.87824 35.5479 2.30909 36.5001 2.80001C40.5687 4.90783 43.9798 8.09332 46.3606 12.0085C48.7414 15.9236 50.0004 20.4178 50.0001 25Z" fill="#ECEFF9"/>
<path d="M30.9991 26.6C30.9972 27.3697 30.8218 28.1291 30.4859 28.8216C30.1501 29.5141 29.6624 30.122 29.0591 30.6C28.8843 30.7478 28.7007 30.8847 28.5091 31.01C28.0403 31.2974 27.536 31.5226 27.0091 31.68V32.16L27.0991 34.26V34.46L27.1991 36.61L27.4591 42.84C27.47 43.2408 27.3232 43.6299 27.0501 43.9235C26.7771 44.2171 26.3997 44.3918 25.9991 44.41H24.5391C24.3461 44.4076 24.1556 44.3662 23.979 44.2882C23.8024 44.2102 23.6435 44.0972 23.5117 43.9561C23.38 43.815 23.2782 43.6487 23.2124 43.4672C23.1466 43.2857 23.1183 43.0928 23.1291 42.9L23.3991 36.59L23.4891 34.59L23.5691 32.73C23.5783 32.4484 23.5057 32.1701 23.3602 31.9288C23.2147 31.6875 23.0025 31.4934 22.7491 31.37C21.8323 30.9628 21.0507 30.3023 20.4962 29.4662C19.9418 28.6301 19.6375 27.6531 19.6191 26.65C19.6181 25.7754 19.8493 24.9161 20.2891 24.16C20.4374 23.9078 20.6045 23.6671 20.7891 23.44V23.44C20.864 23.3487 20.9441 23.2619 21.0291 23.18L21.1591 23.03C21.3242 22.8638 21.5013 22.71 21.6891 22.57C21.7796 22.4947 21.89 22.4471 22.0068 22.4331C22.1237 22.4191 22.2422 22.4392 22.3479 22.491C22.4536 22.5428 22.5421 22.6241 22.6027 22.7251C22.6632 22.826 22.6932 22.9424 22.6891 23.06V25.7C22.6891 26.2305 22.8999 26.7392 23.2749 27.1143C23.65 27.4893 24.1587 27.7 24.6891 27.7H26.1991H26.3791H26.5891L26.7591 27.64L26.9491 27.54L27.1291 27.43L27.2191 27.36C27.2604 27.3362 27.2976 27.3058 27.3291 27.27C27.4167 27.1906 27.497 27.1036 27.5691 27.01C27.6082 26.9605 27.6418 26.9069 27.6691 26.85C27.7309 26.7671 27.7813 26.6763 27.8191 26.58C27.848 26.5234 27.8682 26.4627 27.8791 26.4C27.8848 26.3569 27.8848 26.3132 27.8791 26.27V26.22C27.8847 26.197 27.8847 26.173 27.8791 26.15C27.8839 26.1068 27.8839 26.0632 27.8791 26.02C27.8839 25.9535 27.8839 25.8866 27.8791 25.82V23C27.875 22.8824 27.9051 22.766 27.9656 22.6651C28.0262 22.5641 28.1146 22.4828 28.2204 22.431C28.3261 22.3792 28.4445 22.3591 28.5614 22.3731C28.6783 22.3871 28.7887 22.4347 28.8791 22.51C29.4461 22.9494 29.9246 23.4923 30.2891 24.11C30.743 24.8622 30.9881 25.7217 30.9991 26.6Z" fill="#35A162"/>
<path d="M36.8091 15.45H31.8091V14.15C31.8092 13.1349 31.4094 12.1606 30.6963 11.4381C29.9832 10.7157 29.0142 10.3032 27.9991 10.29H23.0591C22.0354 10.29 21.0536 10.6967 20.3297 11.4206C19.6058 12.1445 19.1991 13.1263 19.1991 14.15V15.45H14.1991C13.316 15.45 12.469 15.8009 11.8445 16.4254C11.22 17.0499 10.8691 17.8969 10.8691 18.78V33.78C10.8691 34.6632 11.22 35.5102 11.8445 36.1347C12.469 36.7592 13.316 37.11 14.1991 37.11H36.8091C37.6923 37.11 38.5393 36.7592 39.1638 36.1347C39.7883 35.5102 40.1391 34.6632 40.1391 33.78V18.78C40.1391 17.8969 39.7883 17.0499 39.1638 16.4254C38.5393 15.8009 37.6923 15.45 36.8091 15.45V15.45ZM21.4391 14.15C21.4418 13.7221 21.6136 13.3126 21.9171 13.011C22.2207 12.7093 22.6312 12.54 23.0591 12.54H27.9991C28.4261 12.54 28.8356 12.7097 29.1376 13.0116C29.4395 13.3135 29.6091 13.723 29.6091 14.15V15.45H21.4391V14.15Z" fill="#2D375E"/>
<path d="M23.4001 36.58V37.08H27.3101V36.58L27.2101 34.43V34.23L27.1201 32.13V31.65C27.647 31.4926 28.1512 31.2674 28.6201 30.98C28.8116 30.8547 28.9953 30.7178 29.1701 30.57C29.7733 30.092 30.261 29.4841 30.5969 28.7916C30.9327 28.0991 31.1082 27.3397 31.1101 26.57C31.1111 25.6954 30.8799 24.8361 30.4401 24.08C30.0636 23.4704 29.575 22.9377 29.0001 22.51C28.9096 22.4347 28.7993 22.3871 28.6824 22.3731C28.5655 22.3591 28.447 22.3792 28.3413 22.431C28.2356 22.4828 28.1471 22.5641 28.0866 22.6651C28.026 22.766 27.996 22.8824 28.0001 23V25.65C28.0048 25.7166 28.0048 25.7835 28.0001 25.85C28.0049 25.8932 28.0049 25.9368 28.0001 25.98C28.0056 26.003 28.0056 26.027 28.0001 26.05C28.0011 26.0667 28.0011 26.0834 28.0001 26.1C28.0057 26.1432 28.0057 26.1869 28.0001 26.23C27.9891 26.2927 27.9689 26.3534 27.9401 26.41C27.9022 26.5063 27.8518 26.5971 27.7901 26.68C27.7627 26.7369 27.7292 26.7905 27.6901 26.84C27.6179 26.9336 27.5376 27.0206 27.4501 27.1C27.4185 27.1358 27.3814 27.1662 27.3401 27.19L27.2501 27.26L27.0701 27.37L26.8801 27.47L26.7101 27.53H26.5001H26.3201H24.6501C24.1196 27.53 23.6109 27.3193 23.2359 26.9443C22.8608 26.5692 22.6501 26.0605 22.6501 25.53V23C22.6542 22.8824 22.6242 22.766 22.5636 22.6651C22.5031 22.5641 22.4146 22.4828 22.3089 22.431C22.2031 22.3792 22.0847 22.3591 21.9678 22.3731C21.8509 22.3871 21.7405 22.4347 21.6501 22.51C21.4623 22.65 21.2851 22.8038 21.1201 22.97L20.9901 23.12C20.905 23.2019 20.8249 23.2887 20.7501 23.38V23.38C20.5655 23.6071 20.3983 23.8478 20.2501 24.1C19.8102 24.8561 19.579 25.7154 19.5801 26.59C19.5984 27.5931 19.9027 28.5701 20.4572 29.4062C21.0116 30.2423 21.7932 30.9028 22.7101 31.31C22.9634 31.4334 23.1757 31.6275 23.3212 31.8688C23.4667 32.1101 23.5392 32.3884 23.5301 32.67L23.4501 34.53L23.4001 36.58Z" fill="#FF9400"/>
<path d="M17.131 32.63H14.741C14.0783 32.63 13.541 33.165 13.541 33.825C13.541 34.485 14.0783 35.02 14.741 35.02H17.131C17.7938 35.02 18.331 34.485 18.331 33.825C18.331 33.165 17.7938 32.63 17.131 32.63Z" fill="white"/>
</svg>
